<svg xmlns="http://www.w3.org/2000/svg" viewBox="0 0 100 125" width="60" height="75">
	<style>
		tspan { white-space:pre }
		.shp0 { fill: #000000 } 
	</style>
	<path id="Layer" fill-rule="evenodd" class="shp0" d="M15.15 57C8.83 48.28 7.23 36.17 11.15 26.87C11.8 25.21 12.66 23.63 13.72 22.2C14.78 20.76 16.03 19.47 17.43 18.36C18.83 17.25 20.37 16.33 22.01 15.63C23.65 14.93 25.38 14.45 27.15 14.2C40.13 12.28 47.55 22.73 50 27C52.45 22.76 59.87 12.31 72.87 14.2C74.64 14.45 76.37 14.93 78.01 15.63C79.65 16.33 81.19 17.25 82.59 18.36C83.99 19.47 85.24 20.76 86.3 22.2C87.36 23.63 88.22 25.21 88.87 26.87C92.78 36.17 91.18 48.28 84.87 57C73.12 73.3 50.71 85.75 50.52 85.88C50.44 85.92 50.36 85.96 50.28 85.98C50.19 86 50.11 86.01 50.02 86.01C49.93 86.01 49.85 86 49.76 85.98C49.68 85.96 49.6 85.92 49.52 85.88C49.29 85.75 26.88 73.3 15.15 57ZM16.75 55.85C27.29 70.45 46.7 81.96 50 83.85C53.3 82 72.71 70.45 83.23 55.86C89.14 47.67 90.65 36.35 87 27.67C86.42 26.17 85.64 24.75 84.68 23.45C83.72 22.15 82.6 20.99 81.33 19.98C80.07 18.98 78.68 18.15 77.2 17.51C75.72 16.88 74.16 16.44 72.56 16.21C57.92 14.04 50.98 29.42 50.92 29.58C50.88 29.67 50.83 29.75 50.77 29.83C50.7 29.9 50.63 29.96 50.55 30.02C50.47 30.07 50.38 30.11 50.29 30.14C50.19 30.17 50.1 30.18 50 30.18C49.9 30.18 49.81 30.17 49.71 30.14C49.62 30.11 49.53 30.07 49.45 30.02C49.37 29.96 49.3 29.9 49.23 29.83C49.17 29.75 49.12 29.67 49.08 29.58C48.82 29 43 16 30.3 16C30.06 16 29.82 16.01 29.58 16.01C29.34 16.02 29.1 16.04 28.87 16.05C28.63 16.07 28.39 16.09 28.15 16.12C27.91 16.15 27.68 16.18 27.44 16.21C25.84 16.44 24.28 16.88 22.8 17.51C21.32 18.15 19.93 18.98 18.67 19.98C17.4 20.99 16.28 22.15 15.32 23.45C14.37 24.75 13.58 26.17 13 27.67C9.32 36.35 10.84 47.68 16.75 55.85Z" />
</svg>