<svg xmlns="http://www.w3.org/2000/svg" data-name="Layer 27" viewBox="0 0 100 125" x="0px" y="0px"><title>3. Heart</title><path d="M49.52,85.88a1,1,0,0,0,1,0C50.71,85.75,73.12,73.3,84.87,57h0c6.31-8.72,7.91-20.83,4-30.13a20.16,20.16,0,0,0-16-12.67C59.87,12.31,52.45,22.76,50,27c-2.45-4.27-9.87-14.72-22.85-12.8a20.16,20.16,0,0,0-16,12.67c-3.92,9.3-2.32,21.41,4,30.13C26.88,73.3,49.29,85.75,49.52,85.88ZM13,27.67A18.26,18.26,0,0,1,27.44,16.21,20.51,20.51,0,0,1,30.3,16C43,16,48.82,29,49.08,29.58a1,1,0,0,0,.92.6h0a1,1,0,0,0,.92-.6c.06-.16,7-15.54,21.64-13.37A18.25,18.25,0,0,1,87,27.67c3.65,8.68,2.14,20-3.77,28.19C72.71,70.45,53.3,82,50,83.85c-3.3-1.89-22.71-13.4-33.25-28C10.84,47.68,9.32,36.35,13,27.67Z"/><text x="0" y="115" fill="#000000" font-size="5px" font-weight="bold" font-family="'Helvetica Neue', Helvetica, Arial-Unicode, Arial, Sans-serif">Created by Pascal Heß</text><text x="0" y="120" fill="#000000" font-size="5px" font-weight="bold" font-family="'Helvetica Neue', Helvetica, Arial-Unicode, Arial, Sans-serif">from the Noun Project</text></svg>